<svg width="58" height="58" viewBox="0 0 58 58" fill="none" xmlns="http://www.w3.org/2000/svg">
<path d="M28.5982 57.7027C44.3925 57.7027 57.1963 44.7855 57.1963 28.8514C57.1963 12.9172 44.3925 0 28.5982 0C12.8038 0 0 12.9172 0 28.8514C0 44.7855 12.8038 57.7027 28.5982 57.7027Z" fill="#FF0101"/>
<path d="M40.9174 16.423C43.5556 16.423 45.6942 14.2654 45.6942 11.6039C45.6942 8.94239 43.5556 6.78479 40.9174 6.78479C38.2792 6.78479 36.1406 8.94239 36.1406 11.6039C36.1406 14.2654 38.2792 16.423 40.9174 16.423Z" fill="white"/>
<mask id="mask0_161824_23" style="mask-type:alpha" maskUnits="userSpaceOnUse" x="0" y="0" width="58" height="58">
<path d="M28.5982 57.7027C44.3925 57.7027 57.1963 44.7855 57.1963 28.8514C57.1963 12.9172 44.3925 0 28.5982 0C12.8038 0 0 12.9172 0 28.8514C0 44.7855 12.8038 57.7027 28.5982 57.7027Z" fill="#FF0101"/>
</mask>
<g mask="url(#mask0_161824_23)">
<path d="M39.5346 29.4219C39.8489 29.9292 40.4146 30.2463 41.0431 30.2463C41.3574 30.2463 41.6716 30.1829 41.9859 29.9926L50.5968 24.793C51.4767 24.2858 51.7281 23.1444 51.2253 22.3201C50.7225 21.4323 49.5911 21.1787 48.774 21.686L41.6088 25.9978L38.1519 19.213C37.2091 18.2619 36.1406 17.3107 35.0721 16.4864L24.827 11.2868C24.1356 10.9698 23.3814 11.0332 22.8157 11.5404L14.2677 19.3398C13.5134 20.0373 13.4506 21.1787 14.142 21.8762C14.8334 22.6371 15.9647 22.7005 16.6561 22.003L24.387 15.028L29.7295 17.7546L20.553 32.0851L-0.377096 57.0685C-1.19419 58.0197 -1.13133 59.5415 -0.125684 60.3658C0.817112 61.1901 2.32559 61.1267 3.14268 60.1122L23.4442 36.4604L32.1808 38.4895L26.2098 47.9375C25.5812 49.0789 25.9584 50.4739 27.0897 51.108C28.0954 51.6787 29.4153 51.4251 30.1067 50.4105L37.7747 38.1725C38.2147 37.5384 38.2776 36.714 38.0261 36.0165C37.7119 35.319 37.1462 34.8118 36.392 34.6849L29.6667 33.0997L35.7634 23.4614L39.5346 29.4219Z" fill="white"/>
</g>
</svg>
